<?xml version="1.0" encoding="utf-8"?>
<!-- Generator: Adobe Illustrator 25.0.1, SVG Export Plug-In . SVG Version: 6.00 Build 0)  -->
<svg version="1.1" id="Layer_1" xmlns="http://www.w3.org/2000/svg" xmlns:xlink="http://www.w3.org/1999/xlink" x="0px" y="0px"
	 viewBox="0 0 200 200" style="enable-background:new 0 0 200 200;" xml:space="preserve">
<style type="text/css">
	.st0{fill:#DA571F;}
</style>
<path class="st0" d="M100.1,29.4c26.6,0,53.3,0,79.9,0c6,0,11,2.1,14.7,6.9c2.5,3.3,3.5,7.1,3.5,11.2c0,23,0,45.9,0,68.9
	c0,11,0,22.1,0,33.1c0,5.9-2.2,10.8-7,14.5c-3.3,2.5-7.1,3.5-11.2,3.5c-19.2,0-38.5,0-57.7,0c-34.1,0-68.1,0-102.2,0
	c-6,0-11.1-2.1-14.8-6.9c-2.5-3.3-3.5-7.1-3.5-11.2c0-23.1,0-46.2,0-69.3c0-10.9,0-21.8,0-32.7c0-5.9,2.2-10.8,7-14.5
	c3.3-2.6,7.2-3.5,11.4-3.5C46.8,29.4,73.4,29.4,100.1,29.4z M21.7,41c0.5,0.5,0.7,0.8,0.9,1C44.2,63.5,65.8,85,87.3,106.4
	c1.9,1.9,4,3.5,6.6,4.4c7.1,2.5,13.4,0.9,18.7-4.4c21.6-21.4,43.1-42.9,64.7-64.4c0.3-0.3,0.5-0.6,0.8-1C126,41,74,41,21.7,41z
	 M22.5,155.9c51.5,0,103.5,0,154.6,0c-15.8-16.1-32-32.6-48.4-49.4c-2.7,2.8-5.3,5.5-7.9,8.1c-12,11.9-29.5,11.9-41.6,0.1
	c-2.3-2.3-4.6-4.5-6.9-6.8c-0.4-0.4-0.8-0.7-1.5-1.3C54.7,123.1,38.5,139.5,22.5,155.9z M62,98.5C46.1,82.4,29.9,66,13.5,49.2
	c0,33,0,65.5,0,98.1c0.1,0.1,0.2,0.1,0.3,0.2C30,131.1,46.1,114.6,62,98.5z M138,98.4c15.8,16.1,32,32.6,48.5,49.4
	c0-33.1,0-65.7,0-98.7C170,65.9,153.8,82.4,138,98.4z"/>
</svg>
