<?xml version="1.0" encoding="utf-8"?>
<!-- Generator: Adobe Illustrator 25.0.1, SVG Export Plug-In . SVG Version: 6.00 Build 0)  -->
<svg version="1.1" id="Layer_1" xmlns="http://www.w3.org/2000/svg" xmlns:xlink="http://www.w3.org/1999/xlink" x="0px" y="0px"
	 viewBox="0 0 200 200" style="enable-background:new 0 0 200 200;" xml:space="preserve">
<style type="text/css">
	.st0{fill:#DA571F;}
</style>
<path class="st0" d="M2.8,47.7C2.9,38,6.1,29.7,13.2,23c5.4-5.3,10.7-10.7,16.3-15.8C33.2,3.6,38,2,43.3,2.4c5,0.4,9.3,2.6,12.8,6.1
	c8.8,8.8,17.8,17.6,26.3,26.7c6.6,7.1,6.6,17.3,0.1,24.5C77.6,65,72.5,70,67.4,75c-1.1,1.1-1.2,1.8-0.5,3.1
	c4.2,8.8,10.1,16.5,16.5,23.8c9,10.2,18.9,19.3,30.4,26.6c2.8,1.8,5.9,3.2,8.8,4.9c1,0.6,1.4-0.1,1.9-0.6c4.2-4.2,8.4-8.4,12.6-12.6
	c3-3,6.2-5.6,10.4-6.6c6.8-1.8,12.9,0,17.8,4.8c8.8,8.5,17.4,17.2,26,25.9c4.1,4.1,6.4,9.2,6,15.1c-0.3,5.4-2.9,9.8-6.6,13.5
	c-4.9,5.1-9.8,10.1-14.8,15.1c-7.6,7.6-17,10-27.5,9.1c-15-1.4-28.7-6.9-42-13.8c-21.7-11.2-40.7-25.8-57.2-43.7
	c-11.7-12.7-22.1-26.5-30.4-41.8C12.1,85.5,6.5,72.7,4,58.8C3.4,55.1,3.2,51.4,2.8,47.7z M150.7,187.5c8.4,0.1,14.1-2.1,18.8-7
	c4.6-4.8,9.3-9.5,13.9-14.3c1.2-1.3,2.4-2.8,3.1-4.5c1.9-4.2,0.4-7.7-2.6-10.8c-8.4-8.5-16.9-17-25.5-25.4c-3.5-3.5-8.1-3.5-12-0.5
	c-0.8,0.6-1.5,1.3-2.1,1.9c-4.9,4.8-9.7,9.7-14.6,14.5c-2.9,2.8-6.1,3.5-9.6,1.8c-3.9-1.9-7.7-3.9-11.3-6.2
	C96,129.1,85,119,75.1,107.6c-7.1-8.2-13.5-16.9-18-26.8c-2.3-5.2-1.8-8,2.3-12c5-4.9,10.1-9.7,14.9-14.8c4-4.2,3.9-8.7,0-12.9
	c-5.2-5.5-10.7-10.9-16-16.3c-3.4-3.4-6.7-6.8-10.2-10c-3.6-3.3-8.1-3.4-12-0.4c-0.8,0.6-1.6,1.3-2.3,2C29.2,21,24.6,25.6,20,30.2
	c-4.6,4.6-6.9,10.1-7.1,16.6c-0.1,6.3,1,12.4,2.7,18.3c4.6,15.1,11.6,29.1,20.5,42.1c13,19.1,28.3,35.9,46.8,49.8
	c14.4,10.9,29.9,19.8,47,26C137.2,185.7,144.6,187.3,150.7,187.5z"/>
</svg>
