<?xml version="1.0" encoding="utf-8"?>
<!-- Generator: Adobe Illustrator 25.0.1, SVG Export Plug-In . SVG Version: 6.00 Build 0)  -->
<svg version="1.1" id="Layer_1" xmlns="http://www.w3.org/2000/svg" xmlns:xlink="http://www.w3.org/1999/xlink" x="0px" y="0px"
	 viewBox="0 0 200 200" style="enable-background:new 0 0 200 200;" xml:space="preserve">
<style type="text/css">
	.st0{fill:#DA571F;}
</style>
<path class="st0" d="M99.9,1.7c31.7,0,59.6,21.8,67.2,52.5c3.1,12.5,2.5,24.9-0.9,37.2c-3.9,14.4-10.4,27.6-18,40.4
	c-9.3,15.8-20.1,30.7-30.7,45.6c-4.3,6.1-8.5,12.2-12.8,18.2c-2.6,3.7-7.2,3.7-9.8,0c-10.9-15.6-21.9-31.1-32.7-46.8
	c-9-13.2-17.1-26.8-23.3-41.6C35,97.2,31.9,87,31.1,76.2c-1.3-17.7,3.5-33.7,14.3-47.7C55,16.1,67.5,7.9,82.6,3.9
	C88.3,2.4,94.1,1.6,99.9,1.7z M100,182.2c0.5-0.6,0.8-1,1.1-1.4c6.1-8.6,12.2-17.2,18.3-25.8c10.1-14.5,20-29.1,27.6-45.1
	c5.1-10.7,9.3-21.6,10.3-33.5c1.4-16-2.9-30.3-13.3-42.5C124.8,11.1,92.9,6.5,68.2,22.9c-14.9,9.9-23.4,24-25.4,41.9
	c-1.2,10.3,0.8,20.3,4.1,30c4.8,14.1,11.9,27.2,20.1,39.6c9.5,14.4,19.5,28.4,29.3,42.6C97.5,178.7,98.6,180.3,100,182.2z"/>
<path class="st0" d="M100,105.4c-19.1,0-34.6-15.5-34.5-34.6c0-19.1,15.6-34.5,34.6-34.5c19,0,34.4,15.5,34.5,34.5
	C134.6,89.8,119,105.4,100,105.4z M77,70.7c0,12.7,10.3,23.1,23,23.1c12.6,0,23-10.3,23.1-22.9c0.1-12.7-10.3-23.1-22.9-23.2
	C87.4,47.7,77,58.1,77,70.7z"/>
</svg>
