<?xml version="1.0" encoding="utf-8"?>
<!-- Generator: Adobe Illustrator 25.0.1, SVG Export Plug-In . SVG Version: 6.00 Build 0)  -->
<svg version="1.1" id="Layer_1" xmlns="http://www.w3.org/2000/svg" xmlns:xlink="http://www.w3.org/1999/xlink" x="0px" y="0px"
	 viewBox="0 0 100 100" style="enable-background:new 0 0 100 100;" xml:space="preserve">
<style type="text/css">
	.st0{fill:url(#SVGID_1_);}
	.st1{fill:#020202;}
</style>
<g>
	<linearGradient id="SVGID_1_" gradientUnits="userSpaceOnUse" x1="8.5" y1="50.05" x2="74" y2="50.05">
		<stop  offset="0" style="stop-color:#F6921E"/>
		<stop  offset="1" style="stop-color:#D71921"/>
	</linearGradient>
	<path class="st0" d="M60.3,41.4l0,0.2h-0.1L60.3,41.4 M66.3,55.8L66.3,56L66.3,55.8L66.3,55.8 M54.6,55.9l-0.1,0.4l-0.1-0.4H54.6
		 M45.9,14.7H29L8.5,50L29,85.4h8.2h5.2l-2.2-4.1H35h-3.6L13.3,50l18.1-31.3H42l10.4,41.4h4.3l3.8-15.5h0.1l3.5,15.5h4.2L74,37.8
		h-4.6l-2.3,10.3c-0.4,1.8-0.7,2.7-1,4.7H66c-0.3-2-0.6-3-1.1-4.8l-2.4-10.3H58L55.8,48c-0.4,1.6-0.8,3-1,4.9h-0.1
		C54.4,51,54,49.6,53.6,48l-6.8-29.2L45.9,14.7L45.9,14.7z"/>
</g>
<g>
	<path class="st1" d="M69.8,14.7h-9H57h-1l1,3.9v0.2h4.7h5.6L85.5,50l-18,31.3h-11L40.1,51.1c3-0.9,4.6-2.8,4.6-6.4
		c0-5-3.3-6.9-8.8-6.9h-8.4v22.3h4.8v-8.4h2.8l16.1,29.6l2.2,4.1h16.3L90.3,50L69.8,14.7L69.8,14.7z M32.3,48v-6.1h3.4
		c2.8,0,4.2,0.8,4.2,3c0,2.3-1.3,3.1-4.2,3.1H32.3L32.3,48z"/>
</g>
</svg>
