<?xml version="1.0" encoding="utf-8"?>
<!-- Generator: Adobe Illustrator 25.0.1, SVG Export Plug-In . SVG Version: 6.00 Build 0)  -->
<svg version="1.1" id="Layer_1" xmlns="http://www.w3.org/2000/svg" xmlns:xlink="http://www.w3.org/1999/xlink" x="0px" y="0px"
	 viewBox="0 0 100 100" style="enable-background:new 0 0 100 100;" xml:space="preserve">
<style type="text/css">
	.st0{fill:url(#SVGID_1_);}
	.st1{fill:#FFFFFF;}
</style>
<linearGradient id="SVGID_1_" gradientUnits="userSpaceOnUse" x1="0.7" y1="50.1" x2="79.7" y2="50.1">
	<stop  offset="0" style="stop-color:#F6921E"/>
	<stop  offset="1" style="stop-color:#D71921"/>
</linearGradient>
<path class="st0" d="M74.1,35.3l-2.8,12.4c-0.5,2.2-0.8,3.3-1.2,5.7H70c-0.4-2.4-0.7-3.6-1.3-5.8l-2.9-12.4h-5.4l-2.7,12.4
	c-0.5,1.9-1,3.6-1.2,5.9h-0.1c-0.4-2.3-0.8-4-1.3-5.9l-8.2-35.2l0,0l-1.1-4.9H25.4L0.7,50l24.7,42.7h9.9h6.3l-2.7-4.9h-6.3h-4.3
	L6.5,50l21.8-37.7h12.8l12.5,49.9h5.2l4.6-18.7h0.1l4.2,18.7h5.1l6.9-26.9C79.7,35.3,74.1,35.3,74.1,35.3z"/>
<path class="st1" d="M74.6,7.3H63.7h-4.6l0,0H58l1.2,4.7v0.2l0,0l0,0h5.7h6.7L93.5,50L71.8,87.7H58.6L38.8,51.3
	c3.6-1.1,5.5-3.4,5.5-7.7c0-6-4-8.3-10.6-8.3H23.6v26.9h5.8V52h3.4l19.4,35.7l2.7,4.9h19.6L99.3,50L74.6,7.3z M33.5,47.5h-4.1v-7.3
	h4.1c3.4,0,5.1,1,5.1,3.6C38.6,46.5,37,47.5,33.5,47.5z"/>
</svg>
