<?xml version="1.0" encoding="utf-8"?>
<!-- Generator: Adobe Illustrator 25.0.1, SVG Export Plug-In . SVG Version: 6.00 Build 0)  -->
<svg version="1.1" id="Layer_1" xmlns="http://www.w3.org/2000/svg" xmlns:xlink="http://www.w3.org/1999/xlink" x="0px" y="0px"
	 viewBox="0 0 100 100" style="enable-background:new 0 0 100 100;" xml:space="preserve">
<style type="text/css">
	.st0{opacity:0.72;}
	.st1{fill:#D71921;}
</style>
<g class="st0">
	<path class="st1" d="M74.3,35.1l-2.7,12.5c-0.5,2.2-0.8,3.3-1.2,5.8h-0.1c-0.4-2.4-0.8-3.7-1.3-5.8l-2.9-12.5h-5.5l-2.8,12.4
		c-0.5,1.9-0.9,3.7-1.2,5.9h-0.1c-0.4-2.3-0.8-4-1.3-5.9l-8.3-35.5h0l-1.1-5H25.2l-24.8,43l24.8,43h10h6.3l-2.7-5h-6.3h-4.4
		l-21.9-38l21.9-38h12.9l12.6,50.3h5.2l4.6-18.9h0.1l4.3,18.9h5.1l7.1-27.1H74.3z"/>
	<path class="st1" d="M74.8,6.9H63.9h-4.6v0h-1.2l1.2,4.7v0.3h0h0h5.7h6.8l21.9,38l-21.9,38H58.6l-20-36.7c3.6-1.1,5.6-3.4,5.6-7.7
		c0-6-4-8.4-10.7-8.4H23.5v27.1h5.9V52h3.4l19.6,36l2.7,5h19.8l24.8-43L74.8,6.9z M33.4,47.3h-4.1v-7.4h4.1c3.4,0,5.1,1,5.1,3.7
		C38.5,46.4,36.8,47.3,33.4,47.3z"/>
</g>
</svg>
