<?xml version="1.0" encoding="utf-8"?>
<!-- Generator: Adobe Illustrator 25.0.1, SVG Export Plug-In . SVG Version: 6.00 Build 0)  -->
<svg version="1.1" id="Layer_1" xmlns="http://www.w3.org/2000/svg" xmlns:xlink="http://www.w3.org/1999/xlink" x="0px" y="0px"
	 viewBox="0 0 149 841.9" style="enable-background:new 0 0 149 841.9;" xml:space="preserve">
<style type="text/css">
	.st0{fill:#FFFFFF;}
</style>
<path class="st0" d="M39.3,657.9h38.4c10.1,0,16.9,1.5,20.3,4.6c3.2,3,4.9,9,4.9,17.8v29.7c0,8.4-2,14.5-6,18.3
	c-4.1,3.7-11.5,5.5-22.4,5.5H44.6l0,0h-20l-11.5,9.7v-63.3c0-8.7,1.8-14.5,5.6-17.6S29.3,657.9,39.3,657.9z M40.4,687.2
	c-6.2,0-7.6,1.1-7.6,5.4v6.4c0,4.5,1.4,5.5,7.6,5.5h36.2c6.2,0,7.9-1.1,7.9-5.5v-6.4c0-4.3-1.7-5.4-7.9-5.4H40.4z"/>
<path class="st0" d="M13.1,650.5v-61.2c0-9.1,1.8-15.3,5.5-18.5c3.5-3.4,10.1-5,19.5-5h64.8v29H88l-16,17h30.9v29H24.5L13.1,650.5z
	 M32.7,611.8h21l16-17H39c-4.9,0-6.3,0.8-6.3,5.3V611.8z"/>
<path class="st0" d="M13.1,495.3c0-8.7,1.8-14.5,5.6-17.6s10.6-4.8,20.5-4.8h38.4c10.1,0,16.9,1.5,20.3,4.6c3.2,3,4.9,8.9,4.9,17.8
	v53.2H24.5l-11.5,9.7L13.1,495.3L13.1,495.3z M40.4,502.2c-6.2,0-7.6,1.1-7.6,5.4v11.9h51.6v-11.9c0-4.3-1.7-5.4-7.9-5.4H40.4z"/>
<path class="st0" d="M13.4,317.6H78c10.1,0,16.9,1.5,20.3,4.6c3.2,3,4.9,8.9,4.9,17.8v64.3c0,8.4-2,14.5-6,18.3
	c-4.1,3.7-11.6,5.5-22.4,5.5H24.9l-11.5,9.7v-38.2h65.1c2.7,0,4.8-2.2,4.8-4.8v-5.3c0-4.3-1.8-5.4-5.2-5.4H13.4v-21.9h64.1
	c3.2,0,5.8-2.6,5.8-5.8v-4.3c0-4.3-2.3-5.4-5.7-5.4H13.4V317.6z"/>
<path class="st0" d="M13.4,271.3h89.8v29H24.8l-11.5,9.7L13.4,271.3L13.4,271.3z"/>
<path class="st0" d="M13.4,263.9v-61.2c0-9.2,1.8-15.4,5.5-18.7s10.1-4.9,19.5-4.9h64.8v29H39.3c-5.1,0-6.3,0.8-6.3,5.3v11.8h70.2
	v29H24.9L13.4,263.9z"/>
<path class="st0" d="M67.9,87.5h13.2c16.2,0,22.1,7.5,22.1,22.1V138c0,8.4-2,14.5-6,18.3c-4.1,3.7-11.5,5.5-22.4,5.5H44.8v0.1h-20
	l-11.5,9.7V90.1h21.3V127c0,4.5,1.4,5.5,7.6,5.5h34.6c6.2,0,7.9-1.1,7.9-5.5v-4.8c0-4.8-1.7-6.4-6.3-6.4h-5.4l-7.4,9.5H42.8
	L67.9,87.5z"/>
<path class="st0" d="M90.7,5c6.6,0,12.5,4.6,12.5,13.9v54.3H82.9V44.8c0-2.4-1-3.7-2.8-3.7c-1,0-1.7,0.3-2.4,0.7L34.2,65.9
	c-0.6,0.4-1.2,0.7-1.8,1L32.4,67l-0.3,0.1c-0.4,0.2-0.7,0.3-1.1,0.4l-6.2,2.7L13.3,80V6.9h21.3v23.5c0,2.5,0.8,3.8,2.5,3.8
	c0.7,0,1.5-0.4,2.8-1.1l41.4-25C84.7,6.1,87.8,5,90.7,5z"/>
<path class="st0" d="M80.8,761.7c-3.3-9.9-9.2-11-19.9-11H39.3c-10,0-16.8,1.6-20.5,4.8c-3.8,3.1-5.6,9-5.6,17.6v63l11.5-9.7H103
	v-29H82.5v-5.4l56.4-38.4v-32.5L80.8,761.7z M56.2,779.9c6.2,0,7.9,1.1,7.9,5.4v11.9H32.8v-11.9c0-4.3,1.4-5.4,7.6-5.4H56.2z"/>
</svg>
